<mxfile host="app.diagrams.net" agent="Mozilla/5.0 (Windows NT 10.0; Win64; x64; rv:137.0) Gecko/20100101 Firefox/137.0" version="26.0.14">
  <diagram name="Page-1" id="7e0a89b8-554c-2b80-1dc8-d5c74ca68de4">
    <mxGraphModel dx="457" dy="388" grid="1" gridSize="10" guides="1" tooltips="1" connect="1" arrows="1" fold="1" page="1" pageScale="1" pageWidth="1100" pageHeight="850" background="none" math="0" shadow="0">
      <root>
        <mxCell id="0" />
        <mxCell id="1" parent="0" />
        <mxCell id="rH5b8w3faLutDfZd44fe-14" style="edgeStyle=none;rounded=0;orthogonalLoop=1;jettySize=auto;html=1;" edge="1" parent="1" source="rH5b8w3faLutDfZd44fe-1">
          <mxGeometry relative="1" as="geometry">
            <mxPoint x="530" y="245" as="targetPoint" />
          </mxGeometry>
        </mxCell>
        <mxCell id="rH5b8w3faLutDfZd44fe-1" value="" style="pointerEvents=1;verticalLabelPosition=bottom;shadow=0;dashed=0;align=center;html=1;verticalAlign=top;shape=mxgraph.electrical.capacitors.multiple_capacitor;" vertex="1" parent="1">
          <mxGeometry x="370" y="200" width="80" height="90" as="geometry" />
        </mxCell>
        <mxCell id="rH5b8w3faLutDfZd44fe-6" value="" style="edgeStyle=orthogonalEdgeStyle;rounded=0;orthogonalLoop=1;jettySize=auto;html=1;" edge="1" parent="1" source="rH5b8w3faLutDfZd44fe-2" target="rH5b8w3faLutDfZd44fe-3">
          <mxGeometry relative="1" as="geometry" />
        </mxCell>
        <mxCell id="rH5b8w3faLutDfZd44fe-2" value="&lt;div&gt;2 Stage Sallen Key&lt;/div&gt;" style="verticalLabelPosition=bottom;shadow=0;dashed=0;align=center;html=1;verticalAlign=top;shape=mxgraph.electrical.logic_gates.lowpass_filter;" vertex="1" parent="1">
          <mxGeometry x="160" y="222" width="50" height="46" as="geometry" />
        </mxCell>
        <mxCell id="rH5b8w3faLutDfZd44fe-3" value="Buffer" style="verticalLabelPosition=bottom;shadow=0;dashed=0;align=center;html=1;verticalAlign=top;shape=mxgraph.electrical.abstract.amplifier;gradientColor=none;" vertex="1" parent="1">
          <mxGeometry x="270" y="220" width="50" height="50" as="geometry" />
        </mxCell>
        <mxCell id="rH5b8w3faLutDfZd44fe-4" value="STM32 DAC" style="perimeter=ellipsePerimeter;verticalLabelPosition=bottom;shadow=0;dashed=0;align=center;html=1;verticalAlign=top;shape=mxgraph.electrical.instruments.signal_generator;" vertex="1" parent="1">
          <mxGeometry x="50" y="220" width="50" height="50" as="geometry" />
        </mxCell>
        <mxCell id="rH5b8w3faLutDfZd44fe-17" style="edgeStyle=none;rounded=0;orthogonalLoop=1;jettySize=auto;html=1;" edge="1" parent="1" source="rH5b8w3faLutDfZd44fe-5">
          <mxGeometry relative="1" as="geometry">
            <mxPoint x="490" y="240" as="targetPoint" />
          </mxGeometry>
        </mxCell>
        <mxCell id="rH5b8w3faLutDfZd44fe-5" value="Half Supply" style="verticalLabelPosition=top;verticalAlign=bottom;shape=mxgraph.electrical.signal_sources.vdd;shadow=0;dashed=0;align=center;strokeWidth=1;fontSize=12;html=1;flipV=1;" vertex="1" parent="1">
          <mxGeometry x="480" y="160" width="20" height="50" as="geometry" />
        </mxCell>
        <mxCell id="rH5b8w3faLutDfZd44fe-8" style="edgeStyle=orthogonalEdgeStyle;rounded=0;orthogonalLoop=1;jettySize=auto;html=1;entryX=0;entryY=0.5;entryDx=0;entryDy=0;entryPerimeter=0;" edge="1" parent="1" source="rH5b8w3faLutDfZd44fe-4" target="rH5b8w3faLutDfZd44fe-2">
          <mxGeometry relative="1" as="geometry" />
        </mxCell>
        <mxCell id="rH5b8w3faLutDfZd44fe-9" value="" style="html=1;shape=mxgraph.electrical.electro-mechanical.twoWaySwitch;aspect=fixed;elSwitchState=2;" vertex="1" parent="1">
          <mxGeometry x="800" y="450" width="75" height="26" as="geometry" />
        </mxCell>
        <mxCell id="rH5b8w3faLutDfZd44fe-13" value="" style="edgeStyle=none;orthogonalLoop=1;jettySize=auto;html=1;rounded=0;entryX=1;entryY=0.23;entryDx=0;entryDy=0;entryPerimeter=0;strokeColor=default;endArrow=none;startFill=0;" edge="1" parent="1" target="rH5b8w3faLutDfZd44fe-1">
          <mxGeometry width="80" relative="1" as="geometry">
            <mxPoint x="450" y="270" as="sourcePoint" />
            <mxPoint x="530" y="270" as="targetPoint" />
            <Array as="points" />
          </mxGeometry>
        </mxCell>
        <mxCell id="rH5b8w3faLutDfZd44fe-16" style="edgeStyle=none;rounded=0;orthogonalLoop=1;jettySize=auto;html=1;entryX=0;entryY=0.5;entryDx=0;entryDy=0;entryPerimeter=0;" edge="1" parent="1" source="rH5b8w3faLutDfZd44fe-3" target="rH5b8w3faLutDfZd44fe-1">
          <mxGeometry relative="1" as="geometry" />
        </mxCell>
        <mxCell id="rH5b8w3faLutDfZd44fe-18" value="" style="pointerEvents=1;verticalLabelPosition=bottom;shadow=0;dashed=0;align=center;html=1;verticalAlign=top;shape=mxgraph.electrical.electro-mechanical.selectorSwitch4Position2;elSwitchState=1;" vertex="1" parent="1">
          <mxGeometry x="530" y="210.5" width="80" height="69" as="geometry" />
        </mxCell>
        <mxCell id="rH5b8w3faLutDfZd44fe-19" value="" style="pointerEvents=1;verticalLabelPosition=bottom;shadow=0;dashed=0;align=center;html=1;verticalAlign=top;shape=mxgraph.electrical.resistors.resistor_1;" vertex="1" parent="1">
          <mxGeometry x="610" y="208" width="40" height="12" as="geometry" />
        </mxCell>
        <mxCell id="rH5b8w3faLutDfZd44fe-20" value="" style="pointerEvents=1;verticalLabelPosition=bottom;shadow=0;dashed=0;align=center;html=1;verticalAlign=top;shape=mxgraph.electrical.resistors.resistor_1;" vertex="1" parent="1">
          <mxGeometry x="610" y="250" width="40" height="12" as="geometry" />
        </mxCell>
        <mxCell id="rH5b8w3faLutDfZd44fe-21" value="" style="pointerEvents=1;verticalLabelPosition=bottom;shadow=0;dashed=0;align=center;html=1;verticalAlign=top;shape=mxgraph.electrical.resistors.resistor_1;" vertex="1" parent="1">
          <mxGeometry x="610" y="230" width="40" height="12" as="geometry" />
        </mxCell>
        <mxCell id="rH5b8w3faLutDfZd44fe-22" value="" style="pointerEvents=1;verticalLabelPosition=bottom;shadow=0;dashed=0;align=center;html=1;verticalAlign=top;shape=mxgraph.electrical.resistors.resistor_1;" vertex="1" parent="1">
          <mxGeometry x="610" y="270" width="40" height="12" as="geometry" />
        </mxCell>
      </root>
    </mxGraphModel>
  </diagram>
</mxfile>
